<mxfile host="app.diagrams.net" modified="2024-01-01T21:35:43.299Z" agent="Mozilla/5.0 (Windows NT 10.0; Win64; x64) AppleWebKit/537.36 (KHTML, like Gecko) Chrome/119.0.0.0 Safari/537.36 OPR/105.0.0.0" etag="Oo0v7OprNSkhx33iv_lE" version="22.1.16" type="github">
  <diagram name="Page-1" id="f1EYfmkK5Ne4-Kmcx3e7">
    <mxGraphModel dx="961" dy="577" grid="1" gridSize="10" guides="1" tooltips="1" connect="1" arrows="1" fold="1" page="1" pageScale="1" pageWidth="850" pageHeight="1100" math="0" shadow="0">
      <root>
        <mxCell id="0" />
        <mxCell id="1" parent="0" />
        <mxCell id="9eXr1HiQtAa5NCH5Nym5-9" style="edgeStyle=orthogonalEdgeStyle;rounded=0;orthogonalLoop=1;jettySize=auto;html=1;strokeWidth=2;strokeColor=#CCCCCC;startArrow=classic;startFill=1;shape=link;" edge="1" parent="1" source="9eXr1HiQtAa5NCH5Nym5-1" target="9eXr1HiQtAa5NCH5Nym5-2">
          <mxGeometry relative="1" as="geometry" />
        </mxCell>
        <mxCell id="9eXr1HiQtAa5NCH5Nym5-10" value="1. Send Events" style="edgeLabel;html=1;align=center;verticalAlign=middle;resizable=0;points=[];" vertex="1" connectable="0" parent="9eXr1HiQtAa5NCH5Nym5-9">
          <mxGeometry x="-0.143" y="-3" relative="1" as="geometry">
            <mxPoint as="offset" />
          </mxGeometry>
        </mxCell>
        <mxCell id="9eXr1HiQtAa5NCH5Nym5-1" value="Windows 10 Client - Wazuh Agent" style="sketch=0;aspect=fixed;pointerEvents=1;shadow=0;dashed=0;html=1;strokeColor=none;labelPosition=center;verticalLabelPosition=bottom;verticalAlign=top;align=center;fillColor=#00188D;shape=mxgraph.azure.computer" vertex="1" parent="1">
          <mxGeometry x="420" y="470" width="50" height="45" as="geometry" />
        </mxCell>
        <mxCell id="9eXr1HiQtAa5NCH5Nym5-11" value="" style="edgeStyle=orthogonalEdgeStyle;rounded=0;orthogonalLoop=1;jettySize=auto;html=1;shape=link;strokeColor=#CCCCCC;" edge="1" parent="1" source="9eXr1HiQtAa5NCH5Nym5-2" target="9eXr1HiQtAa5NCH5Nym5-3">
          <mxGeometry relative="1" as="geometry" />
        </mxCell>
        <mxCell id="9eXr1HiQtAa5NCH5Nym5-2" value="Router" style="sketch=0;points=[[0.5,0,0],[1,0.5,0],[0.5,1,0],[0,0.5,0],[0.145,0.145,0],[0.8555,0.145,0],[0.855,0.8555,0],[0.145,0.855,0]];verticalLabelPosition=bottom;html=1;verticalAlign=top;aspect=fixed;align=center;pointerEvents=1;shape=mxgraph.cisco19.rect;prIcon=router;fillColor=#FAFAFA;strokeColor=#005073;gradientColor=none;" vertex="1" parent="1">
          <mxGeometry x="420" y="342.5" width="50" height="50" as="geometry" />
        </mxCell>
        <mxCell id="9eXr1HiQtAa5NCH5Nym5-12" style="edgeStyle=orthogonalEdgeStyle;rounded=0;orthogonalLoop=1;jettySize=auto;html=1;shape=link;strokeColor=#CCCCCC;" edge="1" parent="1" source="9eXr1HiQtAa5NCH5Nym5-3" target="9eXr1HiQtAa5NCH5Nym5-5">
          <mxGeometry relative="1" as="geometry" />
        </mxCell>
        <mxCell id="9eXr1HiQtAa5NCH5Nym5-13" value="2. Receive Events" style="edgeLabel;html=1;align=center;verticalAlign=middle;resizable=0;points=[];" vertex="1" connectable="0" parent="9eXr1HiQtAa5NCH5Nym5-12">
          <mxGeometry x="0.0616" y="1" relative="1" as="geometry">
            <mxPoint as="offset" />
          </mxGeometry>
        </mxCell>
        <mxCell id="9eXr1HiQtAa5NCH5Nym5-27" style="rounded=0;orthogonalLoop=1;jettySize=auto;html=1;shape=link;fillColor=#ffe6cc;strokeColor=#d79b00;" edge="1" parent="1" source="9eXr1HiQtAa5NCH5Nym5-3" target="9eXr1HiQtAa5NCH5Nym5-8">
          <mxGeometry relative="1" as="geometry" />
        </mxCell>
        <mxCell id="9eXr1HiQtAa5NCH5Nym5-28" value="7. Send &amp;amp; Receive Email" style="edgeLabel;html=1;align=center;verticalAlign=middle;resizable=0;points=[];" vertex="1" connectable="0" parent="9eXr1HiQtAa5NCH5Nym5-27">
          <mxGeometry x="-0.0414" y="3" relative="1" as="geometry">
            <mxPoint as="offset" />
          </mxGeometry>
        </mxCell>
        <mxCell id="9eXr1HiQtAa5NCH5Nym5-3" value="Internet" style="image;aspect=fixed;perimeter=ellipsePerimeter;html=1;align=center;shadow=0;dashed=0;spacingTop=3;image=img/lib/active_directory/internet_cloud.svg;" vertex="1" parent="1">
          <mxGeometry x="420" y="260" width="50" height="31.5" as="geometry" />
        </mxCell>
        <mxCell id="9eXr1HiQtAa5NCH5Nym5-4" value="The Hive" style="image;aspect=fixed;perimeter=ellipsePerimeter;html=1;align=center;shadow=0;dashed=0;spacingTop=3;image=img/lib/active_directory/internet_cloud.svg;" vertex="1" parent="1">
          <mxGeometry x="720" y="210" width="50" height="31.5" as="geometry" />
        </mxCell>
        <mxCell id="9eXr1HiQtAa5NCH5Nym5-14" style="rounded=0;orthogonalLoop=1;jettySize=auto;html=1;shape=link;strokeColor=#66B2FF;" edge="1" parent="1" source="9eXr1HiQtAa5NCH5Nym5-5" target="9eXr1HiQtAa5NCH5Nym5-6">
          <mxGeometry relative="1" as="geometry" />
        </mxCell>
        <mxCell id="9eXr1HiQtAa5NCH5Nym5-15" value="3. Send Alerts" style="edgeLabel;html=1;align=center;verticalAlign=middle;resizable=0;points=[];" vertex="1" connectable="0" parent="9eXr1HiQtAa5NCH5Nym5-14">
          <mxGeometry x="0.0528" relative="1" as="geometry">
            <mxPoint as="offset" />
          </mxGeometry>
        </mxCell>
        <mxCell id="9eXr1HiQtAa5NCH5Nym5-5" value="Wazuh Manager" style="image;aspect=fixed;perimeter=ellipsePerimeter;html=1;align=center;shadow=0;dashed=0;spacingTop=3;image=img/lib/active_directory/internet_cloud.svg;" vertex="1" parent="1">
          <mxGeometry x="140" y="210" width="50" height="31.5" as="geometry" />
        </mxCell>
        <mxCell id="9eXr1HiQtAa5NCH5Nym5-18" style="edgeStyle=orthogonalEdgeStyle;rounded=0;orthogonalLoop=1;jettySize=auto;html=1;shape=link;strokeColor=#99FF99;" edge="1" parent="1" source="9eXr1HiQtAa5NCH5Nym5-6" target="9eXr1HiQtAa5NCH5Nym5-3">
          <mxGeometry relative="1" as="geometry" />
        </mxCell>
        <mxCell id="9eXr1HiQtAa5NCH5Nym5-19" value="4. Enrich IOCS" style="edgeLabel;html=1;align=center;verticalAlign=middle;resizable=0;points=[];" vertex="1" connectable="0" parent="9eXr1HiQtAa5NCH5Nym5-18">
          <mxGeometry x="0.0134" y="2" relative="1" as="geometry">
            <mxPoint as="offset" />
          </mxGeometry>
        </mxCell>
        <mxCell id="9eXr1HiQtAa5NCH5Nym5-20" style="rounded=0;orthogonalLoop=1;jettySize=auto;html=1;shape=link;strokeColor=#66B2FF;" edge="1" parent="1" source="9eXr1HiQtAa5NCH5Nym5-6" target="9eXr1HiQtAa5NCH5Nym5-4">
          <mxGeometry relative="1" as="geometry" />
        </mxCell>
        <mxCell id="9eXr1HiQtAa5NCH5Nym5-21" value="5. Send&amp;nbsp; Alerts" style="edgeLabel;html=1;align=center;verticalAlign=middle;resizable=0;points=[];" vertex="1" connectable="0" parent="9eXr1HiQtAa5NCH5Nym5-20">
          <mxGeometry x="-0.022" y="-2" relative="1" as="geometry">
            <mxPoint as="offset" />
          </mxGeometry>
        </mxCell>
        <mxCell id="9eXr1HiQtAa5NCH5Nym5-23" style="rounded=0;orthogonalLoop=1;jettySize=auto;html=1;entryX=1;entryY=0.5;entryDx=0;entryDy=0;shape=link;fillColor=#ffe6cc;strokeColor=#d79b00;edgeStyle=orthogonalEdgeStyle;" edge="1" parent="1" source="9eXr1HiQtAa5NCH5Nym5-6" target="9eXr1HiQtAa5NCH5Nym5-3">
          <mxGeometry relative="1" as="geometry">
            <Array as="points">
              <mxPoint x="445" y="171" />
              <mxPoint x="520" y="171" />
              <mxPoint x="520" y="280" />
              <mxPoint x="470" y="280" />
            </Array>
          </mxGeometry>
        </mxCell>
        <mxCell id="9eXr1HiQtAa5NCH5Nym5-26" value="6. Send Email" style="edgeLabel;html=1;align=center;verticalAlign=middle;resizable=0;points=[];" vertex="1" connectable="0" parent="9eXr1HiQtAa5NCH5Nym5-23">
          <mxGeometry x="0.2043" relative="1" as="geometry">
            <mxPoint as="offset" />
          </mxGeometry>
        </mxCell>
        <mxCell id="9eXr1HiQtAa5NCH5Nym5-6" value="Shuffle" style="image;aspect=fixed;perimeter=ellipsePerimeter;html=1;align=center;shadow=0;dashed=0;spacingTop=3;image=img/lib/active_directory/internet_cloud.svg;" vertex="1" parent="1">
          <mxGeometry x="420" y="100" width="50" height="31.5" as="geometry" />
        </mxCell>
        <mxCell id="9eXr1HiQtAa5NCH5Nym5-8" value="SOC Analyst" style="sketch=0;aspect=fixed;pointerEvents=1;shadow=0;dashed=0;html=1;strokeColor=none;labelPosition=center;verticalLabelPosition=bottom;verticalAlign=top;align=center;fillColor=#00188D;shape=mxgraph.azure.computer" vertex="1" parent="1">
          <mxGeometry x="670" y="342.5" width="50" height="45" as="geometry" />
        </mxCell>
      </root>
    </mxGraphModel>
  </diagram>
</mxfile>
